<?xml version="1.0" standalone="no"?>
<!DOCTYPE svg PUBLIC "-//W3C//DTD SVG 20010904//EN"
 "http://www.w3.org/TR/2001/REC-SVG-20010904/DTD/svg10.dtd">
<svg version="1.0" xmlns="http://www.w3.org/2000/svg"
 width="350.000000pt" height="350.000000pt" viewBox="0 0 350.000000 350.000000"
 preserveAspectRatio="xMidYMid meet">

<g transform="translate(0.000000,350.000000) scale(0.100000,-0.100000)"
fill="#000000" stroke="none">
<path d="M0 1750 l0 -1750 1750 0 1750 0 0 1750 0 1750 -1750 0 -1750 0 0
-1750z m1945 1470 c110 -13 175 -28 310 -72 79 -25 275 -121 313 -153 16 -14
33 -25 37 -25 22 0 224 -192 299 -284 42 -51 98 -132 109 -156 4 -8 15 -28 26
-45 30 -50 20 -106 -33 -185 -66 -97 -68 -118 -18 -172 22 -23 74 -68 115 -98
101 -74 110 -91 114 -220 5 -126 20 -164 92 -235 52 -51 81 -98 81 -132 0 -20
-86 -113 -103 -113 -5 0 -26 -13 -47 -30 -21 -16 -42 -30 -47 -30 -14 0 -111
-104 -123 -132 -5 -13 -16 -32 -22 -43 -7 -10 -33 -51 -58 -90 -24 -38 -48
-71 -52 -73 -5 -2 -8 -10 -8 -18 0 -25 -251 -268 -335 -324 -87 -58 -221 -127
-300 -155 -27 -9 -59 -21 -70 -26 -22 -9 -67 -21 -185 -47 -134 -29 -582 -17
-625 18 -5 5 -28 12 -50 16 -22 4 -56 14 -75 21 -19 8 -48 20 -65 26 -104 41
-335 178 -335 198 0 5 -6 9 -13 9 -20 0 -213 196 -253 256 -19 29 -41 58 -49
64 -8 7 -15 16 -15 21 0 4 -13 27 -29 51 -86 129 -93 224 -21 288 7 7 42 60
57 87 17 32 -14 90 -73 139 -27 21 -73 64 -104 95 l-57 57 -6 78 c-7 89 -23
128 -75 182 -72 74 -102 114 -102 137 0 28 32 69 75 98 174 117 201 144 299
307 82 135 165 240 264 334 61 58 184 156 196 156 3 0 34 17 68 38 99 60 211
108 308 132 25 7 72 18 105 27 123 30 337 41 480 23z"/>
<path d="M1629 3066 c-2 -3 -38 -10 -79 -16 -78 -12 -153 -32 -207 -56 -17 -8
-36 -14 -42 -14 -6 0 -19 -4 -29 -9 -9 -6 -46 -24 -82 -41 -36 -18 -79 -43
-97 -56 -17 -13 -35 -24 -38 -24 -7 0 -77 -53 -106 -80 -8 -8 -33 -31 -55 -51
-65 -60 -164 -177 -193 -228 -53 -96 -90 -135 -196 -206 -121 -82 -164 -119
-175 -151 -15 -43 -4 -65 74 -153 67 -76 86 -115 84 -181 -2 -60 20 -117 60
-157 34 -34 108 -94 138 -111 6 -4 23 -24 37 -45 22 -33 24 -42 15 -70 -11
-32 -43 -80 -73 -111 -26 -25 -30 -106 -9 -152 22 -48 136 -201 201 -270 73
-76 181 -161 273 -212 77 -43 173 -87 210 -97 14 -3 34 -10 45 -15 33 -15 113
-31 245 -50 99 -14 144 -15 220 -8 214 20 321 49 490 131 168 82 269 159 396
302 25 28 66 82 92 120 26 39 50 72 55 73 4 2 7 9 7 16 0 20 101 111 162 145
30 17 63 40 73 51 10 11 22 20 28 20 17 0 77 71 77 91 0 26 -24 64 -76 119
-84 90 -94 112 -94 214 0 141 -21 182 -130 254 -83 55 -150 124 -150 153 0 13
21 55 45 93 38 59 45 77 45 120 0 32 -7 61 -18 77 -9 15 -29 44 -43 65 -47 71
-170 194 -264 264 -51 39 -95 70 -98 70 -4 0 -28 13 -54 29 -59 37 -197 96
-244 105 -18 4 -43 11 -54 16 -41 19 -165 33 -310 37 -83 3 -153 2 -156 -1z
m-132 -501 c53 -45 83 -103 83 -161 0 -43 -3 -48 -84 -127 -46 -45 -89 -93
-96 -106 -16 -32 -7 -73 31 -127 17 -25 34 -58 39 -74 16 -57 -50 -101 -108
-71 -9 5 -52 26 -95 47 -87 44 -94 47 -157 89 -62 40 -110 90 -110 113 0 18
66 92 137 152 41 34 78 86 113 158 17 33 49 79 70 101 36 37 45 41 88 41 41 0
55 -5 89 -35z m730 0 c47 -40 83 -107 83 -152 0 -26 -17 -49 -90 -127 -49 -52
-92 -106 -95 -119 -7 -25 20 -90 47 -118 55 -57 61 -108 19 -138 -49 -35 -80
-27 -232 64 -50 30 -95 55 -99 55 -5 0 -10 3 -12 8 -1 4 -23 20 -47 37 -83 56
-90 98 -24 157 116 104 172 168 208 236 49 95 93 132 155 132 39 0 53 -6 87
-35z m-1241 -720 c15 -10 23 -29 27 -66 6 -51 65 -159 86 -159 5 0 34 -20 64
-45 31 -25 59 -45 63 -45 14 0 74 -63 74 -77 0 -7 5 -13 10 -13 12 0 13 -24 1
-48 -57 -113 -55 -140 13 -206 65 -64 162 -112 276 -138 69 -16 269 -21 315
-8 110 31 254 88 275 110 5 5 39 23 115 63 22 12 63 35 90 52 28 17 70 41 95
53 121 61 180 111 180 151 0 26 -47 106 -80 136 -32 29 -60 102 -60 155 0 60
33 100 82 100 58 -1 88 -42 88 -120 0 -50 20 -102 53 -134 42 -42 86 -104 92
-129 7 -24 2 -34 -37 -70 -24 -23 -62 -51 -84 -62 -21 -11 -61 -34 -89 -52
-104 -66 -110 -71 -266 -208 -103 -92 -211 -148 -379 -197 -61 -18 -369 -18
-430 0 -25 7 -61 18 -80 24 -33 10 -174 75 -195 90 -87 63 -179 146 -209 189
-25 36 -20 86 13 138 34 55 45 98 32 132 -5 14 -41 51 -81 84 -40 33 -86 72
-104 87 -17 15 -34 28 -37 28 -15 0 -39 71 -39 112 0 60 21 88 68 88 21 0 47
-7 58 -15z"/>
</g>
</svg>
